<?xml version="1.0"?>
<svg xmlns="http://www.w3.org/2000/svg" id="_x31_px" enable-background="new 0 0 24 24" height="512px" viewBox="0 0 24 24" width="512px"><g><path d="m11.9 17h-10.4c-.827 0-1.5-.673-1.5-1.5v-14c0-.827.673-1.5 1.5-1.5h21c.827 0 1.5.673 1.5 1.5v11c0 .276-.224.5-.5.5s-.5-.224-.5-.5v-11c0-.276-.224-.5-.5-.5h-21c-.276 0-.5.224-.5.5v14c0 .276.224.5.5.5h10.4c.276 0 .5.224.5.5s-.224.5-.5.5z" data-original="#000000" class="active-path" data-old_color="#000000" fill="#04458F"/><path d="m11.68 20h-3.18c-.202 0-.385-.122-.462-.309-.078-.187-.035-.402.108-.545 1.318-1.317 1.334-2.592 1.334-2.646 0-.276.224-.5.5-.5.276 0 .5.224.5.5 0 .145-.03 1.24-.909 2.5h2.109c.276 0 .5.224.5.5s-.223.5-.5.5z" data-original="#000000" class="active-path" data-old_color="#000000" fill="#04458F"/><path d="m13.85 14h-13.1c-.276 0-.5-.224-.5-.5s.224-.5.5-.5h13.1c.276 0 .5.224.5.5s-.224.5-.5.5z" data-original="#000000" class="active-path" data-old_color="#000000" fill="#04458F"/><path d="m8.5 10c-.276 0-.5-.224-.5-.5v-3.5c0-.551-.449-1-1-1s-1 .449-1 1v3.5c0 .276-.224.5-.5.5s-.5-.224-.5-.5v-3.5c0-1.103.897-2 2-2s2 .897 2 2v3.5c0 .276-.224.5-.5.5z" data-original="#000000" class="active-path" data-old_color="#000000" fill="#04458F"/><path d="m8.25 8h-2.5c-.276 0-.5-.224-.5-.5s.224-.5.5-.5h2.5c.276 0 .5.224.5.5s-.224.5-.5.5z" data-original="#000000" class="active-path" data-old_color="#000000" fill="#04458F"/><path d="m10.5 10c-.276 0-.5-.224-.5-.5v-5c0-.276.224-.5.5-.5h1.5c1.103 0 2 .897 2 2s-.897 2-2 2h-1v1.5c0 .276-.224.5-.5.5zm.5-3h1c.551 0 1-.449 1-1s-.449-1-1-1h-1z" data-original="#000000" class="active-path" data-old_color="#000000" fill="#04458F"/><path d="m15.5 10c-.276 0-.5-.224-.5-.5v-5c0-.276.224-.5.5-.5s.5.224.5.5v5c0 .276-.224.5-.5.5z" data-original="#000000" class="active-path" data-old_color="#000000" fill="#04458F"/><path d="m18.5 10c-.113 0-.226-.038-.32-.116l-3-2.5c-.114-.095-.18-.236-.18-.384s.066-.289.18-.384l3-2.5c.213-.176.527-.147.705.064.177.212.148.528-.064.705l-2.54 2.115 2.539 2.116c.212.177.241.492.064.705-.099.118-.241.179-.384.179z" data-original="#000000" class="active-path" data-old_color="#000000" fill="#04458F"/><path d="m23.5 18h-2c-.276 0-.5-.224-.5-.5s.224-.5.5-.5h1.5v-1.5c0-.276.224-.5.5-.5s.5.224.5.5v2c0 .276-.224.5-.5.5z" data-original="#000000" class="active-path" data-old_color="#000000" fill="#04458F"/><path d="m14.5 18.99c-.018 0-.036-.001-.054-.003-.274-.029-.473-.276-.444-.55.272-2.53 2.394-4.437 4.938-4.437 1.139 0 2.238.384 3.096 1.083.656.511 1.17 1.199 1.479 1.984.101.257-.025.547-.282.648-.257.1-.547-.025-.648-.282-.244-.618-.649-1.161-1.172-1.568-.688-.56-1.563-.865-2.473-.865-2.031 0-3.726 1.523-3.943 3.543-.027.257-.244.447-.497.447z" data-original="#000000" class="active-path" data-old_color="#000000" fill="#04458F"/><path d="m19.06 24c-1.139 0-2.238-.384-3.096-1.083-.656-.511-1.17-1.199-1.479-1.984-.101-.257.025-.547.282-.648.255-.1.547.025.648.282.244.618.649 1.161 1.172 1.568.688.56 1.563.865 2.473.865 2.031 0 3.726-1.523 3.943-3.543.029-.274.271-.474.55-.444.274.029.473.276.444.55-.271 2.53-2.393 4.437-4.937 4.437z" data-original="#000000" class="active-path" data-old_color="#000000" fill="#04458F"/><path d="m14.5 23c-.276 0-.5-.224-.5-.5v-2c0-.276.224-.5.5-.5h2c.276 0 .5.224.5.5s-.224.5-.5.5h-1.5v1.5c0 .276-.224.5-.5.5z" data-original="#000000" class="active-path" data-old_color="#000000" fill="#04458F"/></g> </svg>
