<?xml version="1.0"?>
<svg xmlns="http://www.w3.org/2000/svg" id="Solid" width="512px" height="512px" viewBox="0 0 512 512"><g><g><path d="M138,352H54a22.025,22.025,0,0,0-22,22v84a22.025,22.025,0,0,0,22,22h84a22.025,22.025,0,0,0,22-22V374A22.025,22.025,0,0,0,138,352ZM96,456a40,40,0,1,1,40-40A40.045,40.045,0,0,1,96,456Zm48-72H128V368h16Z" data-original="#000000" class="active-path" data-old_color="#000000" fill="#04458F"/><path d="M326,312a1.953,1.953,0,0,0,.933-.233,8.078,8.078,0,0,1,1.082-.477,11.963,11.963,0,0,0,3.175-20.871,8,8,0,0,1-3.19-6.392,8.1,8.1,0,0,1,3.19-6.446,11.947,11.947,0,0,0,0-19.162,8,8,0,0,1-3.19-6.392v-8.054a8,8,0,0,1,3.19-6.392,11.963,11.963,0,0,0-3.174-20.871,7.886,7.886,0,0,1-1.081-.477A1.975,1.975,0,0,0,326,216H288a8,8,0,0,1-8-8V182a22.025,22.025,0,0,0-22-22H248v48a8,8,0,0,1-3.562,6.656L224,228.281v77.953L241.3,312Z" data-original="#000000" class="active-path" data-old_color="#000000" fill="#04458F"/><path d="M176,403.767a168.429,168.429,0,0,0,144.063,7.59Q320,409.686,320,408a88.1,88.1,0,0,1,88-88q1.686,0,3.356.063a168.4,168.4,0,0,0-8.865-146.371L390.247,189A8,8,0,0,1,384,192H368a8,8,0,0,1-8-8V152H328a8,8,0,0,1-8-8V100.617a168.622,168.622,0,0,0-128.063.027Q192,102.315,192,104a88.1,88.1,0,0,1-88,88q-1.686,0-3.356-.063A168.419,168.419,0,0,0,108.234,336H138a38.043,38.043,0,0,1,38,38ZM168,328a8,8,0,0,1-8-8V224a8,8,0,0,1,8-8h45.578L232,203.719V152a8,8,0,0,1,8-8h18a38.043,38.043,0,0,1,38,38v18h30a18.049,18.049,0,0,1,7.9,1.828A28.048,28.048,0,0,1,352,228a27.707,27.707,0,0,1-8,19.576v.848A27.982,27.982,0,0,1,346.983,284,27.731,27.731,0,0,1,352,300a28.048,28.048,0,0,1-18.1,26.172A18.045,18.045,0,0,1,326,328H240a8,8,0,0,1-2.53-.411l-14.018-4.672A8,8,0,0,1,216,328Z" data-original="#000000" class="active-path" data-old_color="#000000" fill="#04458F"/><path d="M176,312h32V232H176Zm8-32h16v16H184Z" data-original="#000000" class="active-path" data-old_color="#000000" fill="#04458F"/><path d="M442.944,327.237A200.468,200.468,0,0,0,426.868,152h-7.023l-6.652,8.315a184.405,184.405,0,0,1,14.529,161.913A87.284,87.284,0,0,1,442.944,327.237Z" data-original="#000000" class="active-path" data-old_color="#000000" fill="#04458F"/><path d="M69.056,184.763A200.748,200.748,0,0,0,72.639,336H90.263a184.532,184.532,0,0,1-5.985-146.228A87.284,87.284,0,0,1,69.056,184.763Z" data-original="#000000" class="active-path" data-old_color="#000000" fill="#04458F"/><circle cx="96" cy="416" r="24" data-original="#000000" class="active-path" data-old_color="#000000" fill="#04458F"/><path d="M104,176a72,72,0,1,0-72-72A72.081,72.081,0,0,0,104,176ZM80,88h8V84a28.032,28.032,0,0,1,28-28h12V72H116a12.013,12.013,0,0,0-12,12v4h16v16H104v48H88V104H80Z" data-original="#000000" class="active-path" data-old_color="#000000" fill="#04458F"/><path d="M408,336a72,72,0,1,0,72,72A72.081,72.081,0,0,0,408,336Zm43.578,79.155-64,32A8,8,0,0,1,376,440V376a8,8,0,0,1,11.578-7.155l64,32a8,8,0,0,1,0,14.31Z" data-original="#000000" class="active-path" data-old_color="#000000" fill="#04458F"/><path d="M256,440a184.2,184.2,0,0,1-80-18.263v17.624a200.748,200.748,0,0,0,151.237,3.583,87.27,87.27,0,0,1-5.008-15.221A182.642,182.642,0,0,1,256,440Z" data-original="#000000" class="active-path" data-old_color="#000000" fill="#04458F"/><path d="M336,32V136h32a8,8,0,0,1,8,8v32h4.155l29.6-37A8,8,0,0,1,416,136h52.686L480,124.686V32Zm64,72H384V64h16Zm32,0H416V64h16Z" data-original="#000000" class="active-path" data-old_color="#000000" fill="#04458F"/><path d="M256,72a182.7,182.7,0,0,1,64,11.431V66.456a200.978,200.978,0,0,0-135.237,2.6,87.284,87.284,0,0,1,5.009,15.222A182.7,182.7,0,0,1,256,72Z" data-original="#000000" class="active-path" data-old_color="#000000" fill="#04458F"/><polygon points="392 427.056 430.111 408 392 388.944 392 427.056" data-original="#000000" class="active-path" data-old_color="#000000" fill="#04458F"/></g></g> </svg>
